<svg xmlns="http://www.w3.org/2000/svg" width="264" height="264" fill="none"><path fill="#EBEBEB" d="M0 0h264v264H0z"/><path fill="#fff" d="M64 48h136v168H64z"/><path fill="#F5B434" d="M89 86.2143V87.75h10.75v-4.6072h-1.5357v-1.5357h-1.5357v-1.5357h-1.5357v1.5357h-1.5358v1.5357h-1.5357v1.5358h-1.5357v1.5357H89Z"/><path fill="#B95309" d="M95.1429 80.0714v-1.5357h3.0714v1.5357H99.75v1.5357h1.536V87.75H99.75v-4.6072h-1.5357v-1.5357h-1.5357v-1.5357h-1.5357Z"/><path fill="#E92121" d="M90.5357 86.2143h1.5357V87.75h-1.5357v-1.5357Z"/><path fill="#E3A120" d="M95.1429 86.2143H99.75V87.75h-4.6071v-1.5357Z"/><path fill="#B95309" d="M99.75 83.1428h1.536v1.5358H99.75v-1.5358Z"/><path fill="#E92121" d="M93.6071 83.1428h1.5358v1.5358h-1.5358v-1.5358Zm3.0715 1.5358h1.5357v1.5357h-1.5357v-1.5357Z"/><path fill="#D5F6F4" d="M99.75 110.786v-3.072h-9.2143v3.072h1.5357v1.535h6.1429v-1.535H99.75Z"/><path fill="#70AC24" d="M92.0714 107.714h6.1429v1.536h-6.1429v-1.536Z"/><path fill="#55831B" d="M93.6071 109.25h3.0715v1.536h-3.0715v-1.536Z"/><path fill="#F5B434" d="M96.6786 106.179h1.5357v1.535h-1.5357v-1.535Zm-1.5357 0h1.5357v1.535h-1.5357v-1.535Zm0-1.536h1.5357v1.536h-1.5357v-1.536Z"/><path fill="#B95309" d="M92.0714 132.286v3.071h4.6072v-1.536h1.5357v-1.535H99.75v-4.608h-1.5357v-1.535h-1.5357v1.535h-1.5357v1.536h-1.5358v3.072h-1.5357Z"/><path fill="#E9CDB9" d="M90.5357 135.357h1.5357v1.536h-1.5357v-1.536Zm1.5357-1.536h1.5357v1.536h-1.5357v-1.536Z"/><path fill="#9C4607" d="M93.6071 133.821h3.0715v1.536h-3.0715v-1.536Zm3.0715-1.535h1.5357v1.535h-1.5357v-1.535Z"/><path fill="#ECB27D" d="M90.5357 153.786V163H99.75v-9.214h-1.5357v-1.536h-6.1429v1.536h-1.5357Z"/><path fill="#5E300E" d="M90.5357 158.393H99.75v1.535h-9.2143v-1.535Z"/><path fill="#4B260C" d="M90.5357 159.928H99.75v1.536h-9.2143v-1.536Z"/><path fill="#E92121" d="M90.5357 155.321H99.75v1.536h-9.2143v-1.536Z"/><path fill="#70AC24" d="M90.5357 156.857H99.75v1.536h-9.2143v-1.536Z"/><path fill="#F5B434" d="M89 181.428v3.072h12.286v-3.072H99.75v-1.535h-1.5357v-1.536h-6.1429v1.536h-1.5357v1.535H89Z"/><path fill="#E3A120" d="M89 182.964h12.286v1.536H89v-1.536Z"/><path fill="#E92121" d="M96.6786 178.357h1.5357v1.536h-1.5357v-1.536Z"/><path fill="#70AC24" d="M92.0714 178.357h1.5357v1.536h-1.5357v-1.536Z"/><path fill="#E92121" d="M93.6071 178.357h1.5358v1.536h-1.5358v-1.536Z"/><path fill="#70AC24" d="M95.1429 178.357h1.5357v1.536h-1.5357v-1.536Z"/><path fill="#B95309" d="M116.643 83.1428v3.0715h4.607v-1.5357h1.536v-1.5358h1.535v-4.6071h-1.535V77h-1.536v1.5357h-1.536v1.5357h-1.535v3.0714h-1.536Z"/><path fill="#E9CDB9" d="M115.107 86.2143h1.536V87.75h-1.536v-1.5357Zm1.536-1.5357h1.536v1.5357h-1.536v-1.5357Z"/><path fill="#9C4607" d="M118.179 84.6786h3.071v1.5357h-3.071v-1.5357Zm3.071-1.5358h1.536v1.5358h-1.536v-1.5358Z"/><path fill="#ECB27D" d="M115.107 104.643v9.214h9.214v-9.214h-1.535v-1.536h-6.143v1.536h-1.536Z"/><path fill="#5E300E" d="M115.107 109.25h9.214v1.536h-9.214v-1.536Z"/><path fill="#4B260C" d="M115.107 110.786h9.214v1.535h-9.214v-1.535Z"/><path fill="#E92121" d="M115.107 106.179h9.214v1.535h-9.214v-1.535Z"/><path fill="#70AC24" d="M115.107 107.714h9.214v1.536h-9.214v-1.536Z"/><path fill="#F5B434" d="M113.571 132.286v3.071h12.286v-3.071h-1.536v-1.536h-1.535v-1.536h-6.143v1.536h-1.536v1.536h-1.536Z"/><path fill="#E3A120" d="M113.571 133.821h12.286v1.536h-12.286v-1.536Z"/><path fill="#E92121" d="M121.25 129.214h1.536v1.536h-1.536v-1.536Z"/><path fill="#70AC24" d="M116.643 129.214h1.536v1.536h-1.536v-1.536Z"/><path fill="#E92121" d="M118.179 129.214h1.535v1.536h-1.535v-1.536Z"/><path fill="#70AC24" d="M119.714 129.214h1.536v1.536h-1.536v-1.536Z"/><path fill="#ECB27D" d="M115.107 153.786h9.214v6.142h-9.214v-6.142Z"/><path fill="#E9676F" d="M113.571 155.321h1.536v3.072h-1.536v-3.072Z"/><path fill="#E92121" d="M115.107 155.321h9.214v1.536h-9.214v-1.536Z"/><path fill="#F5B434" d="M115.107 156.857h9.214v1.536h-9.214v-1.536Z"/><path fill="#E9676F" d="M124.321 155.321h1.536v3.072h-1.536v-3.072Z"/><path fill="#F5A834" d="M124.321 176.821h-1.535v1.536h-1.536v1.536h-1.536v1.535h-1.535v1.536h-1.536v1.536h-1.536v1.536h9.214v-9.215Z"/><path fill="#F59134" d="M115.107 184.5h1.536v1.536h-1.536V184.5Z"/><path fill="#E29521" d="M116.643 184.5h1.536v1.536h-1.536V184.5Z"/><path fill="#F59134" d="M121.25 184.5h1.536v1.536h-1.536V184.5Z"/><path fill="#E29521" d="M122.786 184.5h1.535v1.536h-1.535V184.5Z"/><path fill="#F59134" d="M122.786 178.357h1.535v1.536h-1.535v-1.536Z"/><path fill="#E29521" d="M121.25 178.357h1.536v1.536h-1.536v-1.536Z"/><path fill="#F59134" d="M121.25 179.893h1.536v1.535h-1.536v-1.535Z"/><path fill="#E29521" d="M119.714 182.964h1.536v1.536h-1.536v-1.536Z"/><path fill="#F59134" d="M118.179 181.428h1.535v1.536h-1.535v-1.536Z"/><path fill="#F5B434" d="M138.143 83.1428v3.0715h12.286v-3.0715h-1.536v-1.5357h-1.536v-1.5357h-6.143v1.5357h-1.535v1.5357h-1.536Z"/><path fill="#E3A120" d="M138.143 84.6786h12.286v1.5357h-12.286v-1.5357Z"/><path fill="#E92121" d="M145.821 80.0714h1.536v1.5357h-1.536v-1.5357Z"/><path fill="#70AC24" d="M141.214 80.0714h1.536v1.5357h-1.536v-1.5357Z"/><path fill="#E92121" d="M142.75 80.0714h1.536v1.5357h-1.536v-1.5357Z"/><path fill="#70AC24" d="M144.286 80.0714h1.535v1.5357h-1.535v-1.5357Z"/><path fill="#ECB27D" d="M139.679 104.643h9.214v6.143h-9.214v-6.143Z"/><path fill="#E9676F" d="M138.143 106.179h1.536v3.071h-1.536v-3.071Z"/><path fill="#E92121" d="M139.679 106.179h9.214v1.535h-9.214v-1.535Z"/><path fill="#F5B434" d="M139.679 107.714h9.214v1.536h-9.214v-1.536Z"/><path fill="#E9676F" d="M148.893 106.179h1.536v3.071h-1.536v-3.071Z"/><path fill="#F5A834" d="M148.893 127.678h-1.536v1.536h-1.536v1.536h-1.535v1.536h-1.536v1.535h-1.536v1.536h-1.535v1.536h9.214v-9.215Z"/><path fill="#F59134" d="M139.679 135.357h1.535v1.536h-1.535v-1.536Z"/><path fill="#E29521" d="M141.214 135.357h1.536v1.536h-1.536v-1.536Z"/><path fill="#F59134" d="M145.821 135.357h1.536v1.536h-1.536v-1.536Z"/><path fill="#E29521" d="M147.357 135.357h1.536v1.536h-1.536v-1.536Z"/><path fill="#F59134" d="M147.357 129.214h1.536v1.536h-1.536v-1.536Z"/><path fill="#E29521" d="M145.821 129.214h1.536v1.536h-1.536v-1.536Z"/><path fill="#F59134" d="M145.821 130.75h1.536v1.536h-1.536v-1.536Z"/><path fill="#E29521" d="M144.286 133.821h1.535v1.536h-1.535v-1.536Z"/><path fill="#F59134" d="M142.75 132.286h1.536v1.535h-1.536v-1.535Z"/><path fill="#F5B434" d="M138.143 159.928v1.536h10.75v-4.607h-1.536v-1.536h-1.536v-1.535h-1.535v1.535h-1.536v1.536h-1.536v1.536h-1.535v1.535h-1.536Z"/><path fill="#B95309" d="M144.286 153.786v-1.536h3.071v1.536h1.536v1.535h1.536v6.143h-1.536v-4.607h-1.536v-1.536h-1.536v-1.535h-1.535Z"/><path fill="#E92121" d="M139.679 159.928h1.535v1.536h-1.535v-1.536Z"/><path fill="#E3A120" d="M144.286 159.928h4.607v1.536h-4.607v-1.536Z"/><path fill="#B95309" d="M148.893 156.857h1.536v1.536h-1.536v-1.536Z"/><path fill="#E92121" d="M142.75 156.857h1.536v1.536h-1.536v-1.536Zm3.071 1.536h1.536v1.535h-1.536v-1.535Z"/><path fill="#D5F6F4" d="M148.893 184.5v-3.072h-9.214v3.072h1.535v1.536h6.143V184.5h1.536Z"/><path fill="#70AC24" d="M141.214 181.428h6.143v1.536h-6.143v-1.536Z"/><path fill="#55831B" d="M142.75 182.964h3.071v1.536h-3.071v-1.536Z"/><path fill="#F5B434" d="M145.821 179.893h1.536v1.535h-1.536v-1.535Zm-1.535 0h1.535v1.535h-1.535v-1.535Zm0-1.536h1.535v1.536h-1.535v-1.536Z"/><path fill="#F5A834" d="M173.464 78.5357h-1.535v1.5357h-1.536v1.5357h-1.536v1.5357h-1.536v1.5358h-1.535v1.5357h-1.536V87.75h9.214v-9.2143Z"/><path fill="#F59134" d="M164.25 86.2143h1.536V87.75h-1.536v-1.5357Z"/><path fill="#E29521" d="M165.786 86.2143h1.535V87.75h-1.535v-1.5357Z"/><path fill="#F59134" d="M170.393 86.2143h1.536V87.75h-1.536v-1.5357Z"/><path fill="#E29521" d="M171.929 86.2143h1.535V87.75h-1.535v-1.5357Z"/><path fill="#F59134" d="M171.929 80.0714h1.535v1.5357h-1.535v-1.5357Z"/><path fill="#E29521" d="M170.393 80.0714h1.536v1.5357h-1.536v-1.5357Z"/><path fill="#F59134" d="M170.393 81.6071h1.536v1.5357h-1.536v-1.5357Z"/><path fill="#E29521" d="M168.857 84.6786h1.536v1.5357h-1.536v-1.5357Z"/><path fill="#F59134" d="M167.321 83.1428h1.536v1.5358h-1.536v-1.5358Z"/><path fill="#F5B434" d="M162.714 110.786v1.535h10.75v-4.607h-1.535v-1.535h-1.536v-1.536h-1.536v1.536h-1.536v1.535h-1.535v1.536h-1.536v1.536h-1.536Z"/><path fill="#B95309" d="M168.857 104.643v-1.536h3.072v1.536h1.535v1.536H175v6.142h-1.536v-4.607h-1.535v-1.535h-1.536v-1.536h-1.536Z"/><path fill="#E92121" d="M164.25 110.786h1.536v1.535h-1.536v-1.535Z"/><path fill="#E3A120" d="M168.857 110.786h4.607v1.535h-4.607v-1.535Z"/><path fill="#B95309" d="M173.464 107.714H175v1.536h-1.536v-1.536Z"/><path fill="#E92121" d="M167.321 107.714h1.536v1.536h-1.536v-1.536Zm3.072 1.536h1.536v1.536h-1.536v-1.536Z"/><path fill="#D5F6F4" d="M173.464 135.357v-3.071h-9.214v3.071h1.536v1.536h6.143v-1.536h1.535Z"/><path fill="#70AC24" d="M165.786 132.286h6.143v1.535h-6.143v-1.535Z"/><path fill="#55831B" d="M167.321 133.821h3.072v1.536h-3.072v-1.536Z"/><path fill="#F5B434" d="M170.393 130.75h1.536v1.536h-1.536v-1.536Zm-1.536 0h1.536v1.536h-1.536v-1.536Zm0-1.536h1.536v1.536h-1.536v-1.536Z"/><path fill="#B95309" d="M165.786 156.857v3.071h4.607v-1.535h1.536v-1.536h1.535v-4.607h-1.535v-1.536h-1.536v1.536h-1.536v1.536h-1.536v3.071h-1.535Z"/><path fill="#E9CDB9" d="M164.25 159.928h1.536v1.536h-1.536v-1.536Zm1.536-1.535h1.535v1.535h-1.535v-1.535Z"/><path fill="#9C4607" d="M167.321 158.393h3.072v1.535h-3.072v-1.535Zm3.072-1.536h1.536v1.536h-1.536v-1.536Z"/><path fill="#1DA1F2" fill-rule="evenodd" d="M171.929 173.75h-6.143v1.536h-1.536v1.535h-1.536v6.143h1.536v1.536h1.536v1.536h6.143V184.5h1.535v-1.536H175v-6.143h-1.536v-1.535h-1.535v-1.536Zm-6.143 6.143h1.535v1.535h-1.535v-1.535Zm3.071 1.535v1.536h-1.536v-1.536h1.536Zm1.536-1.535h-1.536v1.535h1.536v-1.535Zm0 0v-1.536h1.536v1.536h-1.536Z" clip-rule="evenodd"/></svg>