<svg width="366" height="44" viewBox="0 0 366 44" fill="none" xmlns="http://www.w3.org/2000/svg">
<path d="M11.6512 36.703C9.20921 36.703 7.14954 36.3207 5.47221 35.556C3.79488 34.7667 2.52454 33.706 1.66121 32.374C0.797878 31.0173 0.366211 29.4633 0.366211 27.712H6.24921C6.24921 28.4027 6.43421 29.044 6.80421 29.636C7.19888 30.228 7.79088 30.709 8.58021 31.079C9.36955 31.4243 10.3932 31.597 11.6512 31.597C12.7859 31.597 13.7355 31.449 14.5002 31.153C15.2649 30.857 15.8445 30.45 16.2392 29.932C16.6339 29.3893 16.8312 28.7727 16.8312 28.082C16.8312 27.2187 16.4612 26.5403 15.7212 26.047C14.9812 25.529 13.7849 25.196 12.1322 25.048L10.0972 24.863C7.40854 24.641 5.26254 23.8023 3.65921 22.347C2.05588 20.8917 1.25421 18.9677 1.25421 16.575C1.25421 14.8483 1.66121 13.356 2.47521 12.098C3.31388 10.84 4.47321 9.878 5.95321 9.212C7.43321 8.52133 9.18454 8.176 11.2072 8.176C13.3285 8.176 15.1415 8.546 16.6462 9.286C18.1755 10.0013 19.3472 11.025 20.1612 12.357C20.9752 13.6643 21.3822 15.206 21.3822 16.982H15.4622C15.4622 16.316 15.3019 15.7117 14.9812 15.169C14.6605 14.6017 14.1795 14.1453 13.5382 13.8C12.9215 13.4547 12.1445 13.282 11.2072 13.282C10.3192 13.282 9.56688 13.43 8.95021 13.726C8.35821 14.022 7.91421 14.429 7.61821 14.947C7.32221 15.4403 7.17421 15.983 7.17421 16.575C7.17421 17.3397 7.44554 18.0057 7.98821 18.573C8.53088 19.1403 9.41888 19.4733 10.6522 19.572L12.7242 19.757C14.6975 19.9297 16.4365 20.3613 17.9412 21.052C19.4459 21.718 20.6175 22.643 21.4562 23.827C22.3195 24.9863 22.7512 26.4047 22.7512 28.082C22.7512 29.8087 22.2949 31.3257 21.3822 32.633C20.4942 33.9157 19.2239 34.9147 17.5712 35.63C15.9185 36.3453 13.9452 36.703 11.6512 36.703Z" fill="#232323"/>
<path d="M33.4439 36.629C31.1006 36.629 29.2999 35.8767 28.0419 34.372C26.7839 32.8427 26.1549 30.5487 26.1549 27.49V15.724H32.0749V27.786C32.0749 28.8713 32.3833 29.7347 32.9999 30.376C33.6166 31.0173 34.4429 31.338 35.4789 31.338C36.5396 31.338 37.4029 31.005 38.0689 30.339C38.7349 29.673 39.0679 28.7727 39.0679 27.638V15.724H44.9879V36H40.2889V27.453H40.6959C40.6959 29.5003 40.4246 31.2147 39.8819 32.596C39.3639 33.9527 38.5869 34.964 37.5509 35.63C36.5149 36.296 35.2323 36.629 33.7029 36.629H33.4439Z" fill="#232323"/>
<path d="M50.4466 43.4V15.724H55.1456V24.493L54.5166 24.456C54.6152 22.4333 55.0346 20.7313 55.7746 19.35C56.5146 17.944 57.5136 16.8957 58.7716 16.205C60.0296 15.4897 61.4479 15.132 63.0266 15.132C64.4326 15.132 65.7029 15.391 66.8376 15.909C67.9969 16.427 68.9836 17.1547 69.7976 18.092C70.6362 19.0047 71.2652 20.09 71.6846 21.348C72.1286 22.5813 72.3506 23.938 72.3506 25.418V26.269C72.3506 27.7243 72.1409 29.0933 71.7216 30.376C71.3022 31.634 70.6856 32.7317 69.8716 33.669C69.0822 34.6063 68.1079 35.3463 66.9486 35.889C65.8139 36.407 64.5066 36.666 63.0266 36.666C61.4972 36.666 60.1159 36.3577 58.8826 35.741C57.6739 35.0997 56.6996 34.1377 55.9596 32.855C55.2196 31.5477 54.8126 29.895 54.7386 27.897L56.3666 30.117V43.4H50.4466ZM61.3616 31.708C62.3729 31.708 63.2486 31.4613 63.9886 30.968C64.7532 30.4747 65.3452 29.784 65.7646 28.896C66.1839 28.008 66.3936 26.9843 66.3936 25.825C66.3936 24.6657 66.1839 23.6543 65.7646 22.791C65.3452 21.9277 64.7656 21.2617 64.0256 20.793C63.2856 20.2997 62.3976 20.053 61.3616 20.053C60.4736 20.053 59.6349 20.2627 58.8456 20.682C58.0562 21.1013 57.4149 21.7057 56.9216 22.495C56.4529 23.2597 56.2186 24.197 56.2186 25.307V26.676C56.2186 27.7367 56.4652 28.6493 56.9586 29.414C57.4766 30.154 58.1302 30.7213 58.9196 31.116C59.7089 31.5107 60.5229 31.708 61.3616 31.708Z" fill="#232323"/>
<path d="M85.7492 36.703C84.0225 36.703 82.4932 36.407 81.1612 35.815C79.8539 35.223 78.7562 34.4337 77.8682 33.447C77.0049 32.4357 76.3389 31.3133 75.8702 30.08C75.4262 28.822 75.2042 27.5393 75.2042 26.232V25.492C75.2042 24.1353 75.4262 22.8403 75.8702 21.607C76.3389 20.349 77.0049 19.2267 77.8682 18.24C78.7315 17.2533 79.8045 16.4763 81.0872 15.909C82.3945 15.317 83.8745 15.021 85.5272 15.021C87.6979 15.021 89.5232 15.5143 91.0032 16.501C92.5079 17.463 93.6549 18.7333 94.4442 20.312C95.2335 21.866 95.6282 23.568 95.6282 25.418V27.416H77.6832V24.049H92.0392L90.1152 25.603C90.1152 24.3943 89.9425 23.3583 89.5972 22.495C89.2519 21.6317 88.7339 20.978 88.0432 20.534C87.3772 20.0653 86.5385 19.831 85.5272 19.831C84.4912 19.831 83.6155 20.0653 82.9002 20.534C82.1849 21.0027 81.6422 21.6933 81.2722 22.606C80.9022 23.494 80.7172 24.5917 80.7172 25.899C80.7172 27.1077 80.8899 28.1683 81.2352 29.081C81.5805 29.969 82.1232 30.6597 82.8632 31.153C83.6032 31.6463 84.5652 31.893 85.7492 31.893C86.8345 31.893 87.7225 31.6833 88.4132 31.264C89.1039 30.8447 89.5725 30.3267 89.8192 29.71H95.2582C94.9622 31.0667 94.3825 32.2753 93.5192 33.336C92.6559 34.3967 91.5705 35.223 90.2632 35.815C88.9559 36.407 87.4512 36.703 85.7492 36.703Z" fill="#232323"/>
<path d="M99.5511 36V15.724H104.25V24.419H104.139C104.139 21.5577 104.743 19.35 105.952 17.796C107.185 16.242 108.961 15.465 111.28 15.465H112.057V20.571H110.577C108.949 20.571 107.691 21.015 106.803 21.903C105.915 22.7663 105.471 24.0243 105.471 25.677V36H99.5511Z" fill="#232323"/>
<path d="M127.593 36.666C125.941 36.666 124.485 36.3207 123.227 35.63C121.969 34.9147 120.983 33.891 120.267 32.559C119.552 31.227 119.17 29.599 119.12 27.675H119.823V36H115.124V8.99H121.044V22.717L119.638 24.493C119.712 22.4457 120.095 20.7313 120.785 19.35C121.501 17.944 122.475 16.8957 123.708 16.205C124.942 15.4897 126.348 15.132 127.926 15.132C129.308 15.132 130.553 15.391 131.663 15.909C132.798 16.4023 133.76 17.1177 134.549 18.055C135.339 18.9677 135.943 20.053 136.362 21.311C136.806 22.569 137.028 23.938 137.028 25.418V26.232C137.028 27.712 136.806 29.081 136.362 30.339C135.943 31.597 135.314 32.707 134.475 33.669C133.661 34.6063 132.675 35.3463 131.515 35.889C130.356 36.407 129.049 36.666 127.593 36.666ZM126.039 31.708C127.051 31.708 127.926 31.4613 128.666 30.968C129.431 30.4747 130.023 29.784 130.442 28.896C130.862 27.9833 131.071 26.9597 131.071 25.825C131.071 24.6657 130.862 23.6543 130.442 22.791C130.023 21.9277 129.431 21.2617 128.666 20.793C127.926 20.2997 127.051 20.053 126.039 20.053C125.151 20.053 124.313 20.2627 123.523 20.682C122.734 21.1013 122.093 21.7057 121.599 22.495C121.131 23.2597 120.896 24.197 120.896 25.307V26.676C120.896 27.7367 121.143 28.6493 121.636 29.414C122.154 30.154 122.808 30.7213 123.597 31.116C124.387 31.5107 125.201 31.708 126.039 31.708Z" fill="#232323"/>
<path d="M147.985 36.629C145.642 36.629 143.841 35.8767 142.583 34.372C141.325 32.8427 140.696 30.5487 140.696 27.49V15.724H146.616V27.786C146.616 28.8713 146.924 29.7347 147.541 30.376C148.158 31.0173 148.984 31.338 150.02 31.338C151.081 31.338 151.944 31.005 152.61 30.339C153.276 29.673 153.609 28.7727 153.609 27.638V15.724H159.529V36H154.83V27.453H155.237C155.237 29.5003 154.966 31.2147 154.423 32.596C153.905 33.9527 153.128 34.964 152.092 35.63C151.056 36.296 149.773 36.629 148.244 36.629H147.985Z" fill="#232323"/>
<path d="M164.988 36V15.724H169.687V24.419H169.576C169.576 21.5577 170.18 19.35 171.389 17.796C172.622 16.242 174.398 15.465 176.717 15.465H177.494V20.571H176.014C174.386 20.571 173.128 21.015 172.24 21.903C171.352 22.7663 170.908 24.0243 170.908 25.677V36H164.988Z" fill="#232323"/>
<path d="M180.561 36V15.724H185.26V24.419H184.927C184.927 22.347 185.186 20.6203 185.704 19.239C186.247 17.8577 187.061 16.8217 188.146 16.131C189.231 15.4403 190.551 15.095 192.105 15.095H192.364C194.732 15.095 196.533 15.872 197.766 17.426C199.024 18.9553 199.653 21.2863 199.653 24.419V36H193.733V24.086C193.733 23.0007 193.412 22.1127 192.771 21.422C192.13 20.7313 191.266 20.386 190.181 20.386C189.071 20.386 188.171 20.7437 187.48 21.459C186.814 22.1497 186.481 23.0623 186.481 24.197V36H180.561Z" fill="#232323"/>
<path d="M222.197 36.703C219.755 36.703 217.695 36.3207 216.018 35.556C214.341 34.7667 213.07 33.706 212.207 32.374C211.344 31.0173 210.912 29.4633 210.912 27.712H216.795C216.795 28.4027 216.98 29.044 217.35 29.636C217.745 30.228 218.337 30.709 219.126 31.079C219.915 31.4243 220.939 31.597 222.197 31.597C223.332 31.597 224.281 31.449 225.046 31.153C225.811 30.857 226.39 30.45 226.785 29.932C227.18 29.3893 227.377 28.7727 227.377 28.082C227.377 27.2187 227.007 26.5403 226.267 26.047C225.527 25.529 224.331 25.196 222.678 25.048L220.643 24.863C217.954 24.641 215.808 23.8023 214.205 22.347C212.602 20.8917 211.8 18.9677 211.8 16.575C211.8 14.8483 212.207 13.356 213.021 12.098C213.86 10.84 215.019 9.878 216.499 9.212C217.979 8.52133 219.73 8.176 221.753 8.176C223.874 8.176 225.687 8.546 227.192 9.286C228.721 10.0013 229.893 11.025 230.707 12.357C231.521 13.6643 231.928 15.206 231.928 16.982H226.008C226.008 16.316 225.848 15.7117 225.527 15.169C225.206 14.6017 224.725 14.1453 224.084 13.8C223.467 13.4547 222.69 13.282 221.753 13.282C220.865 13.282 220.113 13.43 219.496 13.726C218.904 14.022 218.46 14.429 218.164 14.947C217.868 15.4403 217.72 15.983 217.72 16.575C217.72 17.3397 217.991 18.0057 218.534 18.573C219.077 19.1403 219.965 19.4733 221.198 19.572L223.27 19.757C225.243 19.9297 226.982 20.3613 228.487 21.052C229.992 21.718 231.163 22.643 232.002 23.827C232.865 24.9863 233.297 26.4047 233.297 28.082C233.297 29.8087 232.841 31.3257 231.928 32.633C231.04 33.9157 229.77 34.9147 228.117 35.63C226.464 36.3453 224.491 36.703 222.197 36.703Z" fill="#232323"/>
<path d="M237.145 36V15.724H241.844V24.419H241.511C241.511 22.347 241.77 20.6203 242.288 19.239C242.83 17.8577 243.644 16.8217 244.73 16.131C245.815 15.4403 247.135 15.095 248.689 15.095H248.948C251.316 15.095 253.116 15.872 254.35 17.426C255.608 18.9553 256.237 21.2863 256.237 24.419V36H250.317V24.086C250.317 23.0007 249.996 22.1127 249.355 21.422C248.713 20.7313 247.85 20.386 246.765 20.386C245.655 20.386 244.754 20.7437 244.064 21.459C243.398 22.1497 243.065 23.0623 243.065 24.197V36H237.145Z" fill="#232323"/>
<path d="M273.529 36V30.006H272.53V23.494C272.53 22.458 272.283 21.681 271.79 21.163C271.296 20.645 270.507 20.386 269.422 20.386C268.879 20.386 268.164 20.3983 267.276 20.423C266.388 20.4477 265.475 20.4847 264.538 20.534C263.6 20.5833 262.749 20.6327 261.985 20.682V15.687C262.552 15.6377 263.218 15.5883 263.983 15.539C264.747 15.4897 265.537 15.4527 266.351 15.428C267.165 15.4033 267.929 15.391 268.645 15.391C270.717 15.391 272.456 15.687 273.862 16.279C275.292 16.871 276.378 17.7713 277.118 18.98C277.858 20.164 278.228 21.6933 278.228 23.568V36H273.529ZM267.054 36.518C265.598 36.518 264.316 36.259 263.206 35.741C262.12 35.223 261.269 34.483 260.653 33.521C260.036 32.5343 259.728 31.3627 259.728 30.006C259.728 28.526 260.11 27.3173 260.875 26.38C261.639 25.418 262.712 24.715 264.094 24.271C265.475 23.8023 267.066 23.568 268.867 23.568H273.196V26.861H268.83C267.794 26.861 266.992 27.12 266.425 27.638C265.882 28.1313 265.611 28.8097 265.611 29.673C265.611 30.487 265.882 31.153 266.425 31.671C266.992 32.1643 267.794 32.411 268.83 32.411C269.496 32.411 270.088 32.3 270.606 32.078C271.148 31.8313 271.592 31.4243 271.938 30.857C272.283 30.2897 272.48 29.5003 272.53 28.489L273.936 29.969C273.812 31.375 273.467 32.559 272.9 33.521C272.357 34.483 271.592 35.223 270.606 35.741C269.644 36.259 268.46 36.518 267.054 36.518Z" fill="#232323"/>
<path d="M292.352 36.703C290.601 36.703 289.072 36.4193 287.764 35.852C286.482 35.26 285.409 34.4707 284.545 33.484C283.682 32.4973 283.041 31.3873 282.621 30.154C282.202 28.896 281.992 27.601 281.992 26.269V25.566C281.992 24.1847 282.214 22.865 282.658 21.607C283.102 20.3243 283.756 19.1897 284.619 18.203C285.483 17.2163 286.556 16.4393 287.838 15.872C289.146 15.3047 290.638 15.021 292.315 15.021C294.141 15.021 295.756 15.3787 297.162 16.094C298.568 16.7847 299.691 17.759 300.529 19.017C301.368 20.275 301.837 21.718 301.935 23.346H296.126C296.028 22.4333 295.658 21.6687 295.016 21.052C294.4 20.4107 293.499 20.09 292.315 20.09C291.329 20.09 290.502 20.3367 289.836 20.83C289.195 21.3233 288.714 22.0017 288.393 22.865C288.073 23.7283 287.912 24.752 287.912 25.936C287.912 27.0213 288.06 28.008 288.356 28.896C288.652 29.7593 289.121 30.4377 289.762 30.931C290.428 31.3997 291.292 31.634 292.352 31.634C293.142 31.634 293.808 31.4983 294.35 31.227C294.918 30.931 295.362 30.5363 295.682 30.043C296.028 29.525 296.237 28.933 296.311 28.267H302.083C302.009 29.9443 301.541 31.4243 300.677 32.707C299.814 33.965 298.667 34.9517 297.236 35.667C295.806 36.3577 294.178 36.703 292.352 36.703Z" fill="#232323"/>
<path d="M320.151 36L313.75 26.528H310.901L319.152 15.724H325.368L317.598 25.788L317.672 22.902L326.811 36H320.151ZM305.869 36V8.99H311.789V36H305.869Z" fill="#232323"/>
<path d="M336.618 36.629C333.732 36.629 331.475 36.037 329.847 34.853C328.219 33.669 327.356 32.004 327.257 29.858H332.511C332.61 30.4993 332.992 31.079 333.658 31.597C334.349 32.0903 335.372 32.337 336.729 32.337C337.765 32.337 338.616 32.1643 339.282 31.819C339.973 31.449 340.318 30.931 340.318 30.265C340.318 29.673 340.059 29.2043 339.541 28.859C339.023 28.489 338.098 28.23 336.766 28.082L335.175 27.934C332.733 27.6873 330.896 27.009 329.662 25.899C328.454 24.789 327.849 23.3707 327.849 21.644C327.849 20.2133 328.207 19.017 328.922 18.055C329.637 17.093 330.624 16.3653 331.882 15.872C333.165 15.3787 334.62 15.132 336.248 15.132C338.863 15.132 340.972 15.7117 342.575 16.871C344.178 18.0057 345.017 19.6583 345.091 21.829H339.837C339.738 21.163 339.393 20.608 338.801 20.164C338.209 19.6953 337.333 19.461 336.174 19.461C335.261 19.461 334.534 19.6337 333.991 19.979C333.448 20.3243 333.177 20.793 333.177 21.385C333.177 21.9523 333.411 22.384 333.88 22.68C334.349 22.976 335.113 23.1857 336.174 23.309L337.765 23.457C340.257 23.7283 342.193 24.419 343.574 25.529C344.955 26.639 345.646 28.1313 345.646 30.006C345.646 31.3627 345.276 32.5467 344.536 33.558C343.796 34.5447 342.748 35.3093 341.391 35.852C340.035 36.37 338.443 36.629 336.618 36.629Z" fill="#232323"/>
<path fill-rule="evenodd" clip-rule="evenodd" d="M362 0H354V2H352V4H350V12H352V14H354V16H362V14H364V12H366V4H364V2H362V0ZM354 8H356V10H354V8ZM358 10V12H356V10H358ZM360 8H358V10H360V8ZM360 8V6H362V8H360Z" fill="#1DA1F2"/>
</svg>
